<?xml version="1.0" encoding="UTF-8" standalone="no"?>
<!DOCTYPE svg PUBLIC "-//W3C//DTD SVG 1.1//EN"
 "http://www.w3.org/Graphics/SVG/1.1/DTD/svg11.dtd">
<!-- Generated by graphviz version 2.50.0 (20211209.1537)
 -->
<!-- Title: g Pages: 1 -->
<svg width="620pt" height="1124pt"
 viewBox="0.00 0.00 619.90 1124.00" xmlns="http://www.w3.org/2000/svg" xmlns:xlink="http://www.w3.org/1999/xlink">
<g id="graph0" class="graph" transform="scale(1 1) rotate(0) translate(4 1120)">
<title>g</title>
<g id="node1" class="node">
<title></title>
<g id="a_node1"><a xlink:href=".">
<ellipse fill="white" stroke="#666666" cx="5.5" cy="-718" rx="5.5" ry="5.5"/>
</a>
</g>
</g>
<!-- assets -->
<g id="node2" class="node">
<title>assets</title>
<g id="a_node2"><a xlink:href="assets">
<ellipse fill="white" stroke="#666666" cx="214.81" cy="-977" rx="5.5" ry="5.5"/>
</a>
</g>
</g>
<!-- &#45;&gt;assets -->
<g id="edge1" class="edge">
<title>&#45;&gt;assets</title>
<path fill="none" stroke="#999999" d="M9.76,-722.07C32.79,-750.84 171.2,-923.77 205.92,-967.14"/>
<polygon fill="#999999" stroke="#999999" points="210.71,-973.13 203.39,-969.39 208.37,-970.2 206.03,-967.28 206.03,-967.28 206.03,-967.28 208.37,-970.2 208.66,-965.17 210.71,-973.13 210.71,-973.13"/>
<text text-anchor="middle" x="87.79" y="-850" font-family="Helvetica,sans-Serif" font-size="10.00">assets</text>
</g>
<!-- images -->
<g id="node4" class="node">
<title>images</title>
<g id="a_node4"><a xlink:href="images">
<ellipse fill="white" stroke="#666666" cx="214.81" cy="-774" rx="5.5" ry="5.5"/>
</a>
</g>
</g>
<!-- &#45;&gt;images -->
<g id="edge3" class="edge">
<title>&#45;&gt;images</title>
<path fill="none" stroke="#999999" d="M11.22,-719.27C37.11,-726.27 162.13,-760.04 201.75,-770.74"/>
<polygon fill="#999999" stroke="#999999" points="209.19,-772.75 201.07,-774.05 205.57,-771.77 201.95,-770.8 201.95,-770.8 201.95,-770.8 205.57,-771.77 202.83,-767.54 209.19,-772.75 209.19,-772.75"/>
<text text-anchor="middle" x="87.79" y="-749" font-family="Helvetica,sans-Serif" font-size="10.00">images</text>
</g>
<!-- index.html -->
<g id="node10" class="node">
<title>index.html</title>
<g id="a_node10"><a xlink:href="index.html" xlink:title="&lt;!DOCTYPE html&gt;\l&lt;html lang=&quot;en&quot;&gt;\l &lt;head...\l">
<polygon fill="white" stroke="#b3b3b3" points="265.28,-696 164.34,-696 164.34,-652 265.28,-652 265.28,-696"/>
<text text-anchor="start" x="172.58" y="-683" font-family="Helvetica,sans-Serif" font-size="10.00">&lt;!DOCTYPE html&gt;</text>
<text text-anchor="start" x="172.58" y="-671" font-family="Helvetica,sans-Serif" font-size="10.00">&lt;html lang=&quot;en&quot;&gt;</text>
<text text-anchor="start" x="172.58" y="-659" font-family="Helvetica,sans-Serif" font-size="10.00"> &lt;head...</text>
</a>
</g>
</g>
<!-- &#45;&gt;index.html -->
<g id="edge9" class="edge">
<title>&#45;&gt;index.html</title>
<path fill="none" stroke="#999999" d="M9.68,-714.14C17.73,-704.71 40.09,-680.62 65,-672 94.13,-661.92 128.42,-661.67 156.74,-664.27"/>
<polygon fill="#999999" stroke="#999999" points="164.56,-665.08 156.75,-667.67 160.83,-664.69 157.1,-664.31 157.1,-664.31 157.1,-664.31 160.83,-664.69 157.44,-660.95 164.56,-665.08 164.56,-665.08"/>
<text text-anchor="middle" x="87.79" y="-675" font-family="Helvetica,sans-Serif" font-size="10.00">index.html</text>
</g>
<!-- prints -->
<g id="node11" class="node">
<title>prints</title>
<g id="a_node11"><a xlink:href="prints">
<ellipse fill="white" stroke="#666666" cx="214.81" cy="-288" rx="5.5" ry="5.5"/>
</a>
</g>
</g>
<!-- &#45;&gt;prints -->
<g id="edge10" class="edge">
<title>&#45;&gt;prints</title>
<path fill="none" stroke="#999999" d="M8.69,-713.46C28.53,-672.32 177.28,-363.78 208.19,-299.65"/>
<polygon fill="#999999" stroke="#999999" points="211.62,-292.54 211.4,-300.76 209.99,-295.92 208.36,-299.29 208.36,-299.29 208.36,-299.29 209.99,-295.92 205.32,-297.83 211.62,-292.54 211.62,-292.54"/>
<text text-anchor="middle" x="87.79" y="-593" font-family="Helvetica,sans-Serif" font-size="10.00">prints</text>
</g>
<!-- assets/styles.css -->
<g id="node3" class="node">
<title>assets/styles.css</title>
<g id="a_node3"><a xlink:href="assets/styles.css" xlink:title="body {\l font&#45;family: Helvetica, Arial, ...\l">
<polygon fill="white" stroke="#b3b3b3" points="611.92,-1116 460.84,-1116 460.84,-1080 611.92,-1080 611.92,-1116"/>
<text text-anchor="start" x="468.86" y="-1101" font-family="Helvetica,sans-Serif" font-size="10.00">body {</text>
<text text-anchor="start" x="468.86" y="-1089" font-family="Helvetica,sans-Serif" font-size="10.00"> font&#45;family: Helvetica, Arial, ...</text>
</a>
</g>
</g>
<!-- assets&#45;&gt;assets/styles.css -->
<g id="edge2" class="edge">
<title>assets&#45;&gt;assets/styles.css</title>
<path fill="none" stroke="#999999" d="M220.11,-978.88C234.2,-985.02 280.31,-1004.96 319.04,-1020 371.75,-1040.46 432.35,-1062.16 475.97,-1077.46"/>
<polygon fill="#999999" stroke="#999999" points="483.1,-1079.95 474.9,-1080.66 479.56,-1078.71 476.02,-1077.47 476.02,-1077.47 476.02,-1077.47 479.56,-1078.71 477.14,-1074.29 483.1,-1079.95 483.1,-1079.95"/>
<text text-anchor="middle" x="362.95" y="-1054" font-family="Helvetica,sans-Serif" font-size="10.00">styles.css</text>
</g>
<!-- images/bookaardvark.jpg -->
<g id="node5" class="node">
<title>images/bookaardvark.jpg</title>
<g id="a_node5"><a xlink:href="images/bookaardvark.jpg" xlink:title="[binary data]">
<polygon fill="white" stroke="#b3b3b3" points="571.92,-1008 500.85,-1008 500.85,-972 571.92,-972 571.92,-1008"/>
<text text-anchor="middle" x="536.38" y="-987" font-family="Helvetica,sans-Serif" font-size="10.00">[binary data]</text>
</a>
</g>
</g>
<!-- images&#45;&gt;images/bookaardvark.jpg -->
<g id="edge4" class="edge">
<title>images&#45;&gt;images/bookaardvark.jpg</title>
<path fill="none" stroke="#999999" d="M219.14,-777.5C231.52,-790.42 276.4,-836.23 319.04,-867 376.41,-908.4 448.89,-947.16 493.69,-969.72"/>
<polygon fill="#999999" stroke="#999999" points="500.64,-973.2 492.42,-972.86 497.28,-971.52 493.93,-969.84 493.93,-969.84 493.93,-969.84 497.28,-971.52 495.44,-966.82 500.64,-973.2 500.64,-973.2"/>
<text text-anchor="middle" x="362.95" y="-925" font-family="Helvetica,sans-Serif" font-size="10.00">bookaardvark.jpg</text>
</g>
<!-- images/coffeeaardvark.jpg -->
<g id="node6" class="node">
<title>images/coffeeaardvark.jpg</title>
<g id="a_node6"><a xlink:href="images/coffeeaardvark.jpg" xlink:title="[binary data]">
<polygon fill="white" stroke="#b3b3b3" points="571.92,-900 500.85,-900 500.85,-864 571.92,-864 571.92,-900"/>
<text text-anchor="middle" x="536.38" y="-879" font-family="Helvetica,sans-Serif" font-size="10.00">[binary data]</text>
</a>
</g>
</g>
<!-- images&#45;&gt;images/coffeeaardvark.jpg -->
<g id="edge5" class="edge">
<title>images&#45;&gt;images/coffeeaardvark.jpg</title>
<path fill="none" stroke="#999999" d="M220.33,-775.53C249.69,-785.45 414.67,-841.21 493.47,-867.84"/>
<polygon fill="#999999" stroke="#999999" points="500.82,-870.32 492.64,-871.12 497.27,-869.12 493.72,-867.92 493.72,-867.92 493.72,-867.92 497.27,-869.12 494.8,-864.72 500.82,-870.32 500.82,-870.32"/>
<text text-anchor="middle" x="362.95" y="-840" font-family="Helvetica,sans-Serif" font-size="10.00">coffeeaardvark.jpg</text>
</g>
<!-- images/setteeaardvark.jpg -->
<g id="node7" class="node">
<title>images/setteeaardvark.jpg</title>
<g id="a_node7"><a xlink:href="images/setteeaardvark.jpg" xlink:title="[binary data]">
<polygon fill="white" stroke="#b3b3b3" points="571.92,-792 500.85,-792 500.85,-756 571.92,-756 571.92,-792"/>
<text text-anchor="middle" x="536.38" y="-771" font-family="Helvetica,sans-Serif" font-size="10.00">[binary data]</text>
</a>
</g>
</g>
<!-- images&#45;&gt;images/setteeaardvark.jpg -->
<g id="edge6" class="edge">
<title>images&#45;&gt;images/setteeaardvark.jpg</title>
<path fill="none" stroke="#999999" d="M220.33,-774C249.63,-774 414.01,-774 493,-774"/>
<polygon fill="#999999" stroke="#999999" points="500.82,-774 493.32,-777.38 497.07,-774 493.32,-774 493.32,-774 493.32,-774 497.07,-774 493.32,-770.63 500.82,-774 500.82,-774"/>
<text text-anchor="middle" x="362.95" y="-777" font-family="Helvetica,sans-Serif" font-size="10.00">setteeaardvark.jpg</text>
</g>
<!-- images/spilledcoffee.jpg -->
<g id="node8" class="node">
<title>images/spilledcoffee.jpg</title>
<g id="a_node8"><a xlink:href="images/spilledcoffee.jpg" xlink:title="[binary data]">
<polygon fill="white" stroke="#b3b3b3" points="571.92,-684 500.85,-684 500.85,-648 571.92,-648 571.92,-684"/>
<text text-anchor="middle" x="536.38" y="-663" font-family="Helvetica,sans-Serif" font-size="10.00">[binary data]</text>
</a>
</g>
</g>
<!-- images&#45;&gt;images/spilledcoffee.jpg -->
<g id="edge7" class="edge">
<title>images&#45;&gt;images/spilledcoffee.jpg</title>
<path fill="none" stroke="#999999" d="M220.33,-772.47C249.69,-762.55 414.67,-706.79 493.47,-680.16"/>
<polygon fill="#999999" stroke="#999999" points="500.82,-677.68 494.8,-683.28 497.27,-678.88 493.72,-680.08 493.72,-680.08 493.72,-680.08 497.27,-678.88 492.64,-676.88 500.82,-677.68 500.82,-677.68"/>
<text text-anchor="middle" x="362.95" y="-742" font-family="Helvetica,sans-Serif" font-size="10.00">spilledcoffee.jpg</text>
</g>
<!-- images/toffeeaardvark.jpg -->
<g id="node9" class="node">
<title>images/toffeeaardvark.jpg</title>
<g id="a_node9"><a xlink:href="images/toffeeaardvark.jpg" xlink:title="[binary data]">
<polygon fill="white" stroke="#b3b3b3" points="571.92,-576 500.85,-576 500.85,-540 571.92,-540 571.92,-576"/>
<text text-anchor="middle" x="536.38" y="-555" font-family="Helvetica,sans-Serif" font-size="10.00">[binary data]</text>
</a>
</g>
</g>
<!-- images&#45;&gt;images/toffeeaardvark.jpg -->
<g id="edge8" class="edge">
<title>images&#45;&gt;images/toffeeaardvark.jpg</title>
<path fill="none" stroke="#999999" d="M219.46,-771.02C227.71,-764.24 248.4,-747.09 265.04,-732 289.73,-709.62 292.32,-699.9 319.04,-680 375.84,-637.71 448.79,-599.48 493.8,-577.5"/>
<polygon fill="#999999" stroke="#999999" points="500.77,-574.11 495.5,-580.42 497.4,-575.75 494.03,-577.38 494.03,-577.38 494.03,-577.38 497.4,-575.75 492.55,-574.35 500.77,-574.11 500.77,-574.11"/>
<text text-anchor="middle" x="362.95" y="-683" font-family="Helvetica,sans-Serif" font-size="10.00">toffeeaardvark.jpg</text>
</g>
<!-- prints/coffeeaardvark.html -->
<g id="node12" class="node">
<title>prints/coffeeaardvark.html</title>
<g id="a_node12"><a xlink:href="prints/coffeeaardvark.html" xlink:title="...&lt;title&gt;Coffeeaardvark&lt;/title&gt;\l &lt;link ...\l">
<polygon fill="white" stroke="#b3b3b3" points="611.35,-468 461.42,-468 461.42,-432 611.35,-432 611.35,-468"/>
<text text-anchor="start" x="469.4" y="-453" font-family="Helvetica,sans-Serif" font-size="10.00">...&lt;title&gt;Coffeeaardvark&lt;/title&gt;</text>
<text text-anchor="start" x="469.4" y="-441" font-family="Helvetica,sans-Serif" font-size="10.00"> &lt;link ...</text>
</a>
</g>
</g>
<!-- prints&#45;&gt;prints/coffeeaardvark.html -->
<g id="edge11" class="edge">
<title>prints&#45;&gt;prints/coffeeaardvark.html</title>
<path fill="none" stroke="#999999" d="M220.05,-290.71C233.97,-299.56 279.64,-328.22 319.04,-349 375.6,-378.82 442.54,-409.37 486.82,-428.95"/>
<polygon fill="#999999" stroke="#999999" points="493.73,-432 485.5,-432.06 490.3,-430.48 486.87,-428.97 486.87,-428.97 486.87,-428.97 490.3,-430.48 488.23,-425.88 493.73,-432 493.73,-432"/>
<text text-anchor="middle" x="362.95" y="-392" font-family="Helvetica,sans-Serif" font-size="10.00">coffeeaardvark.html</text>
</g>
<!-- prints/bookaardvark.html -->
<g id="node13" class="node">
<title>prints/bookaardvark.html</title>
<g id="a_node13"><a xlink:href="prints/bookaardvark.html" xlink:title="...&lt;title&gt;Book Aardvark&lt;/title&gt;\l &lt;link r...\l">
<polygon fill="white" stroke="#b3b3b3" points="610.06,-360 462.7,-360 462.7,-324 610.06,-324 610.06,-360"/>
<text text-anchor="start" x="470.79" y="-345" font-family="Helvetica,sans-Serif" font-size="10.00">...&lt;title&gt;Book Aardvark&lt;/title&gt;</text>
<text text-anchor="start" x="470.79" y="-333" font-family="Helvetica,sans-Serif" font-size="10.00"> &lt;link r...</text>
</a>
</g>
</g>
<!-- prints&#45;&gt;prints/bookaardvark.html -->
<g id="edge12" class="edge">
<title>prints&#45;&gt;prints/bookaardvark.html</title>
<path fill="none" stroke="#999999" d="M220.33,-288.76C245.48,-293.01 370.13,-314.08 454.89,-328.4"/>
<polygon fill="#999999" stroke="#999999" points="462.46,-329.68 454.5,-331.76 458.76,-329.05 455.06,-328.43 455.06,-328.43 455.06,-328.43 458.76,-329.05 455.62,-325.1 462.46,-329.68 462.46,-329.68"/>
<text text-anchor="middle" x="362.95" y="-322" font-family="Helvetica,sans-Serif" font-size="10.00">bookaardvark.html</text>
</g>
<!-- prints/setteeaardvark.html -->
<g id="node14" class="node">
<title>prints/setteeaardvark.html</title>
<g id="a_node14"><a xlink:href="prints/setteeaardvark.html" xlink:title="...&lt;title&gt;Setteeaardvark&lt;/title&gt;\l &lt;link ...\l">
<polygon fill="white" stroke="#b3b3b3" points="611.29,-252 461.47,-252 461.47,-216 611.29,-216 611.29,-252"/>
<text text-anchor="start" x="469.67" y="-237" font-family="Helvetica,sans-Serif" font-size="10.00">...&lt;title&gt;Setteeaardvark&lt;/title&gt;</text>
<text text-anchor="start" x="469.67" y="-225" font-family="Helvetica,sans-Serif" font-size="10.00"> &lt;link ...</text>
</a>
</g>
</g>
<!-- prints&#45;&gt;prints/setteeaardvark.html -->
<g id="edge13" class="edge">
<title>prints&#45;&gt;prints/setteeaardvark.html</title>
<path fill="none" stroke="#999999" d="M220.33,-287.24C245.37,-283.01 369.03,-262.11 453.77,-247.79"/>
<polygon fill="#999999" stroke="#999999" points="461.34,-246.51 454.5,-251.09 457.64,-247.14 453.94,-247.76 453.94,-247.76 453.94,-247.76 457.64,-247.14 453.38,-244.43 461.34,-246.51 461.34,-246.51"/>
<text text-anchor="middle" x="362.95" y="-273" font-family="Helvetica,sans-Serif" font-size="10.00">setteeaardvark.html</text>
</g>
<!-- prints/spilledcoffee.html -->
<g id="node15" class="node">
<title>prints/spilledcoffee.html</title>
<g id="a_node15"><a xlink:href="prints/spilledcoffee.html" xlink:title="...&lt;title&gt;Spilled coffee&lt;/title&gt;\l &lt;link ...\l">
<polygon fill="white" stroke="#b3b3b3" points="607.02,-144 465.75,-144 465.75,-108 607.02,-108 607.02,-144"/>
<text text-anchor="start" x="473.56" y="-129" font-family="Helvetica,sans-Serif" font-size="10.00">...&lt;title&gt;Spilled coffee&lt;/title&gt;</text>
<text text-anchor="start" x="473.56" y="-117" font-family="Helvetica,sans-Serif" font-size="10.00"> &lt;link ...</text>
</a>
</g>
</g>
<!-- prints&#45;&gt;prints/spilledcoffee.html -->
<g id="edge14" class="edge">
<title>prints&#45;&gt;prints/spilledcoffee.html</title>
<path fill="none" stroke="#999999" d="M220.04,-285.23C233.93,-276.19 279.5,-246.93 319.04,-226 375.1,-196.32 441.6,-166.33 485.93,-147.04"/>
<polygon fill="#999999" stroke="#999999" points="492.85,-144.04 487.31,-150.12 489.41,-145.53 485.97,-147.02 485.97,-147.02 485.97,-147.02 489.41,-145.53 484.63,-143.93 492.85,-144.04 492.85,-144.04"/>
<text text-anchor="middle" x="362.95" y="-229" font-family="Helvetica,sans-Serif" font-size="10.00">spilledcoffee.html</text>
</g>
<!-- prints/toffeeaardvark.html -->
<g id="node16" class="node">
<title>prints/toffeeaardvark.html</title>
<g id="a_node16"><a xlink:href="prints/toffeeaardvark.html" xlink:title="...&lt;title&gt;Toffeeaardvark&lt;/title&gt;\l &lt;link ...\l">
<polygon fill="white" stroke="#b3b3b3" points="610.73,-36 462.03,-36 462.03,0 610.73,0 610.73,-36"/>
<text text-anchor="start" x="469.96" y="-21" font-family="Helvetica,sans-Serif" font-size="10.00">...&lt;title&gt;Toffeeaardvark&lt;/title&gt;</text>
<text text-anchor="start" x="469.96" y="-9" font-family="Helvetica,sans-Serif" font-size="10.00"> &lt;link ...</text>
</a>
</g>
</g>
<!-- prints&#45;&gt;prints/toffeeaardvark.html -->
<g id="edge15" class="edge">
<title>prints&#45;&gt;prints/toffeeaardvark.html</title>
<path fill="none" stroke="#999999" d="M218.54,-283.42C229.42,-265.39 271.45,-198.25 319.04,-155 372.71,-106.23 445.83,-63.98 491.81,-39.75"/>
<polygon fill="#999999" stroke="#999999" points="498.67,-36.17 493.59,-42.63 495.35,-37.9 492.03,-39.64 492.03,-39.64 492.03,-39.64 495.35,-37.9 490.46,-36.65 498.67,-36.17 498.67,-36.17"/>
<text text-anchor="middle" x="362.95" y="-158" font-family="Helvetica,sans-Serif" font-size="10.00">toffeeaardvark.html</text>
</g>
</g>
</svg>
