<?xml version="1.0" encoding="UTF-8" standalone="no"?>
<!DOCTYPE svg PUBLIC "-//W3C//DTD SVG 1.1//EN"
 "http://www.w3.org/Graphics/SVG/1.1/DTD/svg11.dtd">
<!-- Generated by graphviz version 2.50.0 (20211209.1537)
 -->
<!-- Title: g Pages: 1 -->
<svg width="680pt" height="626pt"
 viewBox="0.00 0.00 679.98 626.00" xmlns="http://www.w3.org/2000/svg" xmlns:xlink="http://www.w3.org/1999/xlink">
<g id="graph0" class="graph" transform="scale(1 1) rotate(0) translate(4 622)">
<title>g</title>
<g id="node1" class="node">
<title></title>
<g id="a_node1"><a xlink:href=".">
<ellipse fill="white" stroke="#666666" cx="5.5" cy="-444" rx="5.5" ry="5.5"/>
</a>
</g>
</g>
<!-- assets -->
<g id="node2" class="node">
<title>assets</title>
<g id="a_node2"><a xlink:href="assets" xlink:title="Stylesheet, fonts, etc.\l">
<polygon fill="white" stroke="#b3b3b3" points="301,-618 189.79,-618 189.79,-582 301,-582 301,-618"/>
<text text-anchor="start" x="197.59" y="-597" font-family="Helvetica,sans-Serif" font-size="10.00">Stylesheet, fonts, etc.</text>
</a>
</g>
</g>
<!-- &#45;&gt;assets -->
<g id="edge1" class="edge">
<title>&#45;&gt;assets</title>
<path fill="none" stroke="#999999" d="M10.03,-447.31C18.9,-455.53 42.96,-477.35 65,-493 110.65,-525.42 166.48,-557.65 203.62,-578.13"/>
<polygon fill="#999999" stroke="#999999" points="210.33,-581.82 202.13,-581.17 207.04,-580.01 203.75,-578.21 203.75,-578.21 203.75,-578.21 207.04,-580.01 205.38,-575.25 210.33,-581.82 210.33,-581.82"/>
<text text-anchor="middle" x="87.79" y="-524" font-family="Helvetica,sans-Serif" font-size="10.00">assets</text>
</g>
<!-- index.html -->
<g id="node3" class="node">
<title>index.html</title>
<g id="a_node3"><a xlink:href="index.html" xlink:title="Home page showing print gallery\l">
<polygon fill="white" stroke="#b3b3b3" points="326.03,-510 164.76,-510 164.76,-474 326.03,-474 326.03,-510"/>
<text text-anchor="start" x="172.58" y="-489" font-family="Helvetica,sans-Serif" font-size="10.00">Home page showing print gallery</text>
</a>
</g>
</g>
<!-- &#45;&gt;index.html -->
<g id="edge2" class="edge">
<title>&#45;&gt;index.html</title>
<path fill="none" stroke="#999999" d="M11.04,-444.92C29.24,-448.59 98.78,-462.62 157.25,-474.42"/>
<polygon fill="#999999" stroke="#999999" points="164.69,-475.92 156.67,-477.74 161.01,-475.18 157.34,-474.43 157.34,-474.43 157.34,-474.43 161.01,-475.18 158,-471.13 164.69,-475.92 164.69,-475.92"/>
<text text-anchor="middle" x="87.79" y="-466" font-family="Helvetica,sans-Serif" font-size="10.00">index.html</text>
</g>
<!-- prints -->
<g id="node4" class="node">
<title>prints</title>
<g id="a_node4"><a xlink:href="prints">
<ellipse fill="white" stroke="#666666" cx="245.39" cy="-396" rx="5.5" ry="5.5"/>
</a>
</g>
</g>
<!-- &#45;&gt;prints -->
<g id="edge3" class="edge">
<title>&#45;&gt;prints</title>
<path fill="none" stroke="#999999" d="M10.99,-442.39C20.73,-438.96 44.52,-430.84 65,-426 127.11,-411.32 202.98,-401.12 232.16,-397.48"/>
<polygon fill="#999999" stroke="#999999" points="239.91,-396.53 232.88,-400.79 236.19,-396.98 232.47,-397.44 232.47,-397.44 232.47,-397.44 236.19,-396.98 232.06,-394.09 239.91,-396.53 239.91,-396.53"/>
<text text-anchor="middle" x="87.79" y="-429" font-family="Helvetica,sans-Serif" font-size="10.00">prints</text>
</g>
<!-- scaled -->
<g id="node8" class="node">
<title>scaled</title>
<g id="a_node8"><a xlink:href="scaled">
<ellipse fill="white" stroke="#666666" cx="245.39" cy="-180" rx="5.5" ry="5.5"/>
</a>
</g>
</g>
<!-- &#45;&gt;scaled -->
<g id="edge7" class="edge">
<title>&#45;&gt;scaled</title>
<path fill="none" stroke="#999999" d="M9.86,-440.27C35.27,-412.07 197.14,-232.44 236.01,-189.3"/>
<polygon fill="#999999" stroke="#999999" points="241.15,-183.6 238.64,-191.43 238.64,-186.38 236.13,-189.17 236.13,-189.17 236.13,-189.17 238.64,-186.38 233.62,-186.91 241.15,-183.6 241.15,-183.6"/>
<text text-anchor="middle" x="87.79" y="-376" font-family="Helvetica,sans-Serif" font-size="10.00">scaled</text>
</g>
<!-- prints/cat&#45;watching&#45;a&#45;spider.html -->
<g id="node5" class="node">
<title>prints/cat&#45;watching&#45;a&#45;spider.html</title>
<g id="a_node5"><a xlink:href="prints/cat-watching-a-spider.html" xlink:title="Page for individual print\l">
<polygon fill="white" stroke="#b3b3b3" points="671.74,-576 551.72,-576 551.72,-540 671.74,-540 671.74,-576"/>
<text text-anchor="start" x="559.48" y="-555" font-family="Helvetica,sans-Serif" font-size="10.00">Page for individual print</text>
</a>
</g>
</g>
<!-- prints&#45;&gt;prints/cat&#45;watching&#45;a&#45;spider.html -->
<g id="edge4" class="edge">
<title>prints&#45;&gt;prints/cat&#45;watching&#45;a&#45;spider.html</title>
<path fill="none" stroke="#999999" d="M250.51,-398.15C266.79,-406.63 328.32,-438.43 380.21,-462 440.47,-489.37 510.84,-518.24 557.83,-537.08"/>
<polygon fill="#999999" stroke="#999999" points="564.87,-539.9 556.66,-540.25 561.39,-538.51 557.91,-537.12 557.91,-537.12 557.91,-537.12 561.39,-538.51 559.16,-533.98 564.87,-539.9 564.87,-539.9"/>
<text text-anchor="middle" x="438.84" y="-513" font-family="Helvetica,sans-Serif" font-size="10.00">cat&#45;watching&#45;a&#45;spider.html</text>
</g>
<!-- prints/three&#45;cats.html -->
<g id="node6" class="node">
<title>prints/three&#45;cats.html</title>
<g id="a_node6"><a xlink:href="prints/three-cats.html" xlink:title="Page for individual print\l">
<polygon fill="white" stroke="#b3b3b3" points="671.74,-468 551.72,-468 551.72,-432 671.74,-432 671.74,-468"/>
<text text-anchor="start" x="559.48" y="-447" font-family="Helvetica,sans-Serif" font-size="10.00">Page for individual print</text>
</a>
</g>
</g>
<!-- prints&#45;&gt;prints/three&#45;cats.html -->
<g id="edge5" class="edge">
<title>prints&#45;&gt;prints/three&#45;cats.html</title>
<path fill="none" stroke="#999999" d="M251,-396.68C280.84,-401.1 448.48,-425.95 544.02,-440.11"/>
<polygon fill="#999999" stroke="#999999" points="551.62,-441.24 543.71,-443.48 547.91,-440.69 544.2,-440.14 544.2,-440.14 544.2,-440.14 547.91,-440.69 544.7,-436.8 551.62,-441.24 551.62,-441.24"/>
<text text-anchor="middle" x="438.84" y="-435" font-family="Helvetica,sans-Serif" font-size="10.00">three&#45;cats.html</text>
</g>
<!-- prints/young&#45;girl&#45;with&#45;a&#45;cat.html -->
<g id="node7" class="node">
<title>prints/young&#45;girl&#45;with&#45;a&#45;cat.html</title>
<g id="a_node7"><a xlink:href="prints/young-girl-with-a-cat.html" xlink:title="Page for individual print\l">
<polygon fill="white" stroke="#b3b3b3" points="671.74,-360 551.72,-360 551.72,-324 671.74,-324 671.74,-360"/>
<text text-anchor="start" x="559.48" y="-339" font-family="Helvetica,sans-Serif" font-size="10.00">Page for individual print</text>
</a>
</g>
</g>
<!-- prints&#45;&gt;prints/young&#45;girl&#45;with&#45;a&#45;cat.html -->
<g id="edge6" class="edge">
<title>prints&#45;&gt;prints/young&#45;girl&#45;with&#45;a&#45;cat.html</title>
<path fill="none" stroke="#999999" d="M251,-395.32C280.84,-390.9 448.48,-366.05 544.02,-351.89"/>
<polygon fill="#999999" stroke="#999999" points="551.62,-350.76 544.7,-355.2 547.91,-351.31 544.2,-351.86 544.2,-351.86 544.2,-351.86 547.91,-351.31 543.71,-348.52 551.62,-350.76 551.62,-350.76"/>
<text text-anchor="middle" x="438.84" y="-378" font-family="Helvetica,sans-Serif" font-size="10.00">young&#45;girl&#45;with&#45;a&#45;cat.html</text>
</g>
<!-- scaled/cat&#45;watching&#45;a&#45;spider.jpg -->
<g id="node9" class="node">
<title>scaled/cat&#45;watching&#45;a&#45;spider.jpg</title>
<g id="a_node9"><a xlink:href="scaled/cat-watching-a-spider.jpg" xlink:title="Print image\l">
<polygon fill="white" stroke="#b3b3b3" points="644.81,-252 578.65,-252 578.65,-216 644.81,-216 644.81,-252"/>
<text text-anchor="start" x="586.44" y="-231" font-family="Helvetica,sans-Serif" font-size="10.00">Print image</text>
</a>
</g>
</g>
<!-- scaled&#45;&gt;scaled/cat&#45;watching&#45;a&#45;spider.jpg -->
<g id="edge8" class="edge">
<title>scaled&#45;&gt;scaled/cat&#45;watching&#45;a&#45;spider.jpg</title>
<path fill="none" stroke="#999999" d="M251,-180.68C283.9,-185.56 484.42,-215.28 570.99,-228.11"/>
<polygon fill="#999999" stroke="#999999" points="578.51,-229.22 570.59,-231.46 574.8,-228.67 571.09,-228.12 571.09,-228.12 571.09,-228.12 574.8,-228.67 571.58,-224.79 578.51,-229.22 578.51,-229.22"/>
<text text-anchor="middle" x="438.84" y="-219" font-family="Helvetica,sans-Serif" font-size="10.00">cat&#45;watching&#45;a&#45;spider.jpg</text>
</g>
<!-- scaled/three&#45;cats.jpg -->
<g id="node10" class="node">
<title>scaled/three&#45;cats.jpg</title>
<g id="a_node10"><a xlink:href="scaled/three-cats.jpg" xlink:title="Print image\l">
<polygon fill="white" stroke="#b3b3b3" points="644.81,-144 578.65,-144 578.65,-108 644.81,-108 644.81,-144"/>
<text text-anchor="start" x="586.44" y="-123" font-family="Helvetica,sans-Serif" font-size="10.00">Print image</text>
</a>
</g>
</g>
<!-- scaled&#45;&gt;scaled/three&#45;cats.jpg -->
<g id="edge9" class="edge">
<title>scaled&#45;&gt;scaled/three&#45;cats.jpg</title>
<path fill="none" stroke="#999999" d="M251,-179.32C283.9,-174.44 484.42,-144.72 570.99,-131.89"/>
<polygon fill="#999999" stroke="#999999" points="578.51,-130.78 571.58,-135.21 574.8,-131.33 571.09,-131.88 571.09,-131.88 571.09,-131.88 574.8,-131.33 570.59,-128.54 578.51,-130.78 578.51,-130.78"/>
<text text-anchor="middle" x="438.84" y="-162" font-family="Helvetica,sans-Serif" font-size="10.00">three&#45;cats.jpg</text>
</g>
<!-- scaled/young&#45;girl&#45;with&#45;a&#45;cat.jpg -->
<g id="node11" class="node">
<title>scaled/young&#45;girl&#45;with&#45;a&#45;cat.jpg</title>
<g id="a_node11"><a xlink:href="scaled/young-girl-with-a-cat.jpg" xlink:title="Print image\l">
<polygon fill="white" stroke="#b3b3b3" points="644.81,-36 578.65,-36 578.65,0 644.81,0 644.81,-36"/>
<text text-anchor="start" x="586.44" y="-15" font-family="Helvetica,sans-Serif" font-size="10.00">Print image</text>
</a>
</g>
</g>
<!-- scaled&#45;&gt;scaled/young&#45;girl&#45;with&#45;a&#45;cat.jpg -->
<g id="edge10" class="edge">
<title>scaled&#45;&gt;scaled/young&#45;girl&#45;with&#45;a&#45;cat.jpg</title>
<path fill="none" stroke="#999999" d="M250.5,-177.8C266.75,-169.15 328.2,-136.7 380.21,-113 446.39,-82.84 524.99,-51.35 571.21,-33.27"/>
<polygon fill="#999999" stroke="#999999" points="578.34,-30.48 572.58,-36.35 574.85,-31.85 571.35,-33.21 571.35,-33.21 571.35,-33.21 574.85,-31.85 570.13,-30.07 578.34,-30.48 578.34,-30.48"/>
<text text-anchor="middle" x="438.84" y="-116" font-family="Helvetica,sans-Serif" font-size="10.00">young&#45;girl&#45;with&#45;a&#45;cat.jpg</text>
</g>
</g>
</svg>
