<?xml version="1.0" encoding="UTF-8" standalone="no"?>
<!DOCTYPE svg PUBLIC "-//W3C//DTD SVG 1.1//EN"
 "http://www.w3.org/Graphics/SVG/1.1/DTD/svg11.dtd">
<!-- Generated by graphviz version 2.50.0 (20211209.1537)
 -->
<!-- Title: g Pages: 1 -->
<svg width="678pt" height="1124pt"
 viewBox="0.00 0.00 677.75 1124.00" xmlns="http://www.w3.org/2000/svg" xmlns:xlink="http://www.w3.org/1999/xlink">
<g id="graph0" class="graph" transform="scale(1 1) rotate(0) translate(4 1120)">
<title>g</title>
<g id="node1" class="node">
<title></title>
<g id="a_node1"><a xlink:href=".">
<ellipse fill="white" stroke="#666666" cx="5.5" cy="-718" rx="5.5" ry="5.5"/>
</a>
</g>
</g>
<!-- assets -->
<g id="node2" class="node">
<title>assets</title>
<g id="a_node2"><a xlink:href="assets">
<ellipse fill="white" stroke="#666666" cx="214.81" cy="-977" rx="5.5" ry="5.5"/>
</a>
</g>
</g>
<!-- &#45;&gt;assets -->
<g id="edge1" class="edge">
<title>&#45;&gt;assets</title>
<path fill="none" stroke="#999999" d="M9.76,-722.07C32.79,-750.84 171.2,-923.77 205.92,-967.14"/>
<polygon fill="#999999" stroke="#999999" points="210.71,-973.13 203.39,-969.39 208.37,-970.2 206.03,-967.28 206.03,-967.28 206.03,-967.28 208.37,-970.2 208.66,-965.17 210.71,-973.13 210.71,-973.13"/>
<text text-anchor="middle" x="87.79" y="-850" font-family="Helvetica,sans-Serif" font-size="10.00">assets</text>
</g>
<!-- images -->
<g id="node4" class="node">
<title>images</title>
<g id="a_node4"><a xlink:href="images">
<ellipse fill="white" stroke="#666666" cx="214.81" cy="-774" rx="5.5" ry="5.5"/>
</a>
</g>
</g>
<!-- &#45;&gt;images -->
<g id="edge3" class="edge">
<title>&#45;&gt;images</title>
<path fill="none" stroke="#999999" d="M11.22,-719.27C37.11,-726.27 162.13,-760.04 201.75,-770.74"/>
<polygon fill="#999999" stroke="#999999" points="209.19,-772.75 201.07,-774.05 205.57,-771.77 201.95,-770.8 201.95,-770.8 201.95,-770.8 205.57,-771.77 202.83,-767.54 209.19,-772.75 209.19,-772.75"/>
<text text-anchor="middle" x="87.79" y="-749" font-family="Helvetica,sans-Serif" font-size="10.00">images</text>
</g>
<!-- index.html -->
<g id="node10" class="node">
<title>index.html</title>
<g id="a_node10"><a xlink:href="index.html" xlink:title="&lt;!DOCTYPE html&gt;\l&lt;html lang=&quot;en&quot;&gt;\l &lt;head...\l">
<polygon fill="white" stroke="#b3b3b3" points="265.28,-696 164.34,-696 164.34,-652 265.28,-652 265.28,-696"/>
<text text-anchor="start" x="172.58" y="-683" font-family="Helvetica,sans-Serif" font-size="10.00">&lt;!DOCTYPE html&gt;</text>
<text text-anchor="start" x="172.58" y="-671" font-family="Helvetica,sans-Serif" font-size="10.00">&lt;html lang=&quot;en&quot;&gt;</text>
<text text-anchor="start" x="172.58" y="-659" font-family="Helvetica,sans-Serif" font-size="10.00"> &lt;head...</text>
</a>
</g>
</g>
<!-- &#45;&gt;index.html -->
<g id="edge9" class="edge">
<title>&#45;&gt;index.html</title>
<path fill="none" stroke="#999999" d="M9.68,-714.14C17.73,-704.71 40.09,-680.62 65,-672 94.13,-661.92 128.42,-661.67 156.74,-664.27"/>
<polygon fill="#999999" stroke="#999999" points="164.56,-665.08 156.75,-667.67 160.83,-664.69 157.1,-664.31 157.1,-664.31 157.1,-664.31 160.83,-664.69 157.44,-660.95 164.56,-665.08 164.56,-665.08"/>
<text text-anchor="middle" x="87.79" y="-675" font-family="Helvetica,sans-Serif" font-size="10.00">index.html</text>
</g>
<!-- prints -->
<g id="node11" class="node">
<title>prints</title>
<g id="a_node11"><a xlink:href="prints">
<ellipse fill="white" stroke="#666666" cx="214.81" cy="-288" rx="5.5" ry="5.5"/>
</a>
</g>
</g>
<!-- &#45;&gt;prints -->
<g id="edge10" class="edge">
<title>&#45;&gt;prints</title>
<path fill="none" stroke="#999999" d="M8.69,-713.46C28.53,-672.32 177.28,-363.78 208.19,-299.65"/>
<polygon fill="#999999" stroke="#999999" points="211.62,-292.54 211.4,-300.76 209.99,-295.92 208.36,-299.29 208.36,-299.29 208.36,-299.29 209.99,-295.92 205.32,-297.83 211.62,-292.54 211.62,-292.54"/>
<text text-anchor="middle" x="87.79" y="-593" font-family="Helvetica,sans-Serif" font-size="10.00">prints</text>
</g>
<!-- assets/styles.css -->
<g id="node3" class="node">
<title>assets/styles.css</title>
<g id="a_node3"><a xlink:href="assets/styles.css" xlink:title="body {\l font&#45;family: Helvetica, Arial, ...\l">
<polygon fill="white" stroke="#b3b3b3" points="655.02,-1116 503.94,-1116 503.94,-1080 655.02,-1080 655.02,-1116"/>
<text text-anchor="start" x="511.96" y="-1101" font-family="Helvetica,sans-Serif" font-size="10.00">body {</text>
<text text-anchor="start" x="511.96" y="-1089" font-family="Helvetica,sans-Serif" font-size="10.00"> font&#45;family: Helvetica, Arial, ...</text>
</a>
</g>
</g>
<!-- assets&#45;&gt;assets/styles.css -->
<g id="edge2" class="edge">
<title>assets&#45;&gt;assets/styles.css</title>
<path fill="none" stroke="#999999" d="M220.08,-978.96C234.07,-985.36 279.92,-1006.01 319.04,-1020 380.8,-1042.08 452.25,-1063.25 504.52,-1077.95"/>
<polygon fill="#999999" stroke="#999999" points="511.76,-1079.98 503.63,-1081.2 508.15,-1078.96 504.54,-1077.95 504.54,-1077.95 504.54,-1077.95 508.15,-1078.96 505.45,-1074.7 511.76,-1079.98 511.76,-1079.98"/>
<text text-anchor="middle" x="377.13" y="-1059" font-family="Helvetica,sans-Serif" font-size="10.00">styles.css</text>
</g>
<!-- images/bookaardvark.jpg -->
<g id="node5" class="node">
<title>images/bookaardvark.jpg</title>
<g id="a_node5"><a xlink:href="images/bookaardvark.jpg" xlink:title="[binary data]">
<polygon fill="white" stroke="#b3b3b3" points="615.02,-1008 543.95,-1008 543.95,-972 615.02,-972 615.02,-1008"/>
<text text-anchor="middle" x="579.48" y="-987" font-family="Helvetica,sans-Serif" font-size="10.00">[binary data]</text>
</a>
</g>
</g>
<!-- images&#45;&gt;images/bookaardvark.jpg -->
<g id="edge4" class="edge">
<title>images&#45;&gt;images/bookaardvark.jpg</title>
<path fill="none" stroke="#999999" d="M219.07,-777.61C231.19,-790.9 275.29,-837.83 319.04,-867 390.54,-914.67 483.39,-953.91 536.42,-974.46"/>
<polygon fill="#999999" stroke="#999999" points="543.63,-977.24 535.42,-977.69 540.13,-975.89 536.63,-974.54 536.63,-974.54 536.63,-974.54 540.13,-975.89 537.84,-971.39 543.63,-977.24 543.63,-977.24"/>
<text text-anchor="middle" x="377.13" y="-931" font-family="Helvetica,sans-Serif" font-size="10.00">bookaardvark.jpg</text>
</g>
<!-- images/coffeeaardvark.jpg -->
<g id="node6" class="node">
<title>images/coffeeaardvark.jpg</title>
<g id="a_node6"><a xlink:href="images/coffeeaardvark.jpg" xlink:title="[binary data]">
<polygon fill="white" stroke="#b3b3b3" points="615.02,-900 543.95,-900 543.95,-864 615.02,-864 615.02,-900"/>
<text text-anchor="middle" x="579.48" y="-879" font-family="Helvetica,sans-Serif" font-size="10.00">[binary data]</text>
</a>
</g>
</g>
<!-- images&#45;&gt;images/coffeeaardvark.jpg -->
<g id="edge5" class="edge">
<title>images&#45;&gt;images/coffeeaardvark.jpg</title>
<path fill="none" stroke="#999999" d="M220.4,-775.37C252.82,-785.02 448.8,-843.38 536.32,-869.44"/>
<polygon fill="#999999" stroke="#999999" points="543.69,-871.64 535.54,-872.73 540.09,-870.57 536.5,-869.5 536.5,-869.5 536.5,-869.5 540.09,-870.57 537.46,-866.26 543.69,-871.64 543.69,-871.64"/>
<text text-anchor="middle" x="377.13" y="-840" font-family="Helvetica,sans-Serif" font-size="10.00">coffeeaardvark.jpg</text>
</g>
<!-- images/setteeaardvark.jpg -->
<g id="node7" class="node">
<title>images/setteeaardvark.jpg</title>
<g id="a_node7"><a xlink:href="images/setteeaardvark.jpg" xlink:title="[binary data]">
<polygon fill="white" stroke="#b3b3b3" points="615.02,-792 543.95,-792 543.95,-756 615.02,-756 615.02,-792"/>
<text text-anchor="middle" x="579.48" y="-771" font-family="Helvetica,sans-Serif" font-size="10.00">[binary data]</text>
</a>
</g>
</g>
<!-- images&#45;&gt;images/setteeaardvark.jpg -->
<g id="edge6" class="edge">
<title>images&#45;&gt;images/setteeaardvark.jpg</title>
<path fill="none" stroke="#999999" d="M220.4,-774C252.79,-774 448.4,-774 536.06,-774"/>
<polygon fill="#999999" stroke="#999999" points="543.69,-774 536.19,-777.38 539.94,-774 536.19,-774 536.19,-774 536.19,-774 539.94,-774 536.19,-770.63 543.69,-774 543.69,-774"/>
<text text-anchor="middle" x="377.13" y="-777" font-family="Helvetica,sans-Serif" font-size="10.00">setteeaardvark.jpg</text>
</g>
<!-- images/spilledcoffeeaardvark.jpg -->
<g id="node8" class="node">
<title>images/spilledcoffeeaardvark.jpg</title>
<g id="a_node8"><a xlink:href="images/spilledcoffeeaardvark.jpg" xlink:title="[binary data]">
<polygon fill="white" stroke="#b3b3b3" points="615.02,-684 543.95,-684 543.95,-648 615.02,-648 615.02,-684"/>
<text text-anchor="middle" x="579.48" y="-663" font-family="Helvetica,sans-Serif" font-size="10.00">[binary data]</text>
</a>
</g>
</g>
<!-- images&#45;&gt;images/spilledcoffeeaardvark.jpg -->
<g id="edge7" class="edge">
<title>images&#45;&gt;images/spilledcoffeeaardvark.jpg</title>
<path fill="none" stroke="#999999" d="M220.4,-772.63C252.82,-762.98 448.8,-704.62 536.32,-678.56"/>
<polygon fill="#999999" stroke="#999999" points="543.69,-676.36 537.46,-681.74 540.09,-677.43 536.5,-678.5 536.5,-678.5 536.5,-678.5 540.09,-677.43 535.54,-675.27 543.69,-676.36 543.69,-676.36"/>
<text text-anchor="middle" x="377.13" y="-745" font-family="Helvetica,sans-Serif" font-size="10.00">spilledcoffeeaardvark.jpg</text>
</g>
<!-- images/toffeeaardvark.jpg -->
<g id="node9" class="node">
<title>images/toffeeaardvark.jpg</title>
<g id="a_node9"><a xlink:href="images/toffeeaardvark.jpg" xlink:title="[binary data]">
<polygon fill="white" stroke="#b3b3b3" points="615.02,-576 543.95,-576 543.95,-540 615.02,-540 615.02,-576"/>
<text text-anchor="middle" x="579.48" y="-555" font-family="Helvetica,sans-Serif" font-size="10.00">[binary data]</text>
</a>
</g>
</g>
<!-- images&#45;&gt;images/toffeeaardvark.jpg -->
<g id="edge8" class="edge">
<title>images&#45;&gt;images/toffeeaardvark.jpg</title>
<path fill="none" stroke="#999999" d="M219.46,-771.02C227.71,-764.24 248.4,-747.09 265.04,-732 289.73,-709.62 291.6,-698.9 319.04,-680 389.91,-631.2 483.37,-592.68 536.59,-572.8"/>
<polygon fill="#999999" stroke="#999999" points="543.83,-570.12 537.97,-575.89 540.31,-571.42 536.8,-572.73 536.8,-572.73 536.8,-572.73 540.31,-571.42 535.63,-569.56 543.83,-570.12 543.83,-570.12"/>
<text text-anchor="middle" x="377.13" y="-683" font-family="Helvetica,sans-Serif" font-size="10.00">toffeeaardvark.jpg</text>
</g>
<!-- prints/coffeeaardvark.html -->
<g id="node12" class="node">
<title>prints/coffeeaardvark.html</title>
<g id="a_node12"><a xlink:href="prints/coffeeaardvark.html" xlink:title="...&lt;title&gt;Coffeeaardvark&lt;/title&gt;\l &lt;link ...\l">
<polygon fill="white" stroke="#b3b3b3" points="654.45,-468 504.52,-468 504.52,-432 654.45,-432 654.45,-468"/>
<text text-anchor="start" x="512.5" y="-453" font-family="Helvetica,sans-Serif" font-size="10.00">...&lt;title&gt;Coffeeaardvark&lt;/title&gt;</text>
<text text-anchor="start" x="512.5" y="-441" font-family="Helvetica,sans-Serif" font-size="10.00"> &lt;link ...</text>
</a>
</g>
</g>
<!-- prints&#45;&gt;prints/coffeeaardvark.html -->
<g id="edge11" class="edge">
<title>prints&#45;&gt;prints/coffeeaardvark.html</title>
<path fill="none" stroke="#999999" d="M220,-290.81C233.76,-299.98 278.98,-329.52 319.04,-349 385.06,-381.09 464.04,-410.65 517.38,-429.39"/>
<polygon fill="#999999" stroke="#999999" points="524.74,-431.96 516.54,-432.67 521.2,-430.72 517.66,-429.48 517.66,-429.48 517.66,-429.48 521.2,-430.72 518.77,-426.3 524.74,-431.96 524.74,-431.96"/>
<text text-anchor="middle" x="377.13" y="-400" font-family="Helvetica,sans-Serif" font-size="10.00">coffeeaardvark.html</text>
</g>
<!-- prints/bookaardvark.html -->
<g id="node13" class="node">
<title>prints/bookaardvark.html</title>
<g id="a_node13"><a xlink:href="prints/bookaardvark.html" xlink:title="...&lt;title&gt;Book Aardvark&lt;/title&gt;\l &lt;link r...\l">
<polygon fill="white" stroke="#b3b3b3" points="653.16,-360 505.8,-360 505.8,-324 653.16,-324 653.16,-360"/>
<text text-anchor="start" x="513.89" y="-345" font-family="Helvetica,sans-Serif" font-size="10.00">...&lt;title&gt;Book Aardvark&lt;/title&gt;</text>
<text text-anchor="start" x="513.89" y="-333" font-family="Helvetica,sans-Serif" font-size="10.00"> &lt;link r...</text>
</a>
</g>
</g>
<!-- prints&#45;&gt;prints/bookaardvark.html -->
<g id="edge12" class="edge">
<title>prints&#45;&gt;prints/bookaardvark.html</title>
<path fill="none" stroke="#999999" d="M220.4,-288.68C248.69,-292.89 401.45,-315.64 498.08,-330.03"/>
<polygon fill="#999999" stroke="#999999" points="505.52,-331.14 497.6,-333.37 501.81,-330.58 498.1,-330.03 498.1,-330.03 498.1,-330.03 501.81,-330.58 498.6,-326.69 505.52,-331.14 505.52,-331.14"/>
<text text-anchor="middle" x="377.13" y="-322" font-family="Helvetica,sans-Serif" font-size="10.00">bookaardvark.html</text>
</g>
<!-- prints/setteeaardvark.html -->
<g id="node14" class="node">
<title>prints/setteeaardvark.html</title>
<g id="a_node14"><a xlink:href="prints/setteeaardvark.html" xlink:title="...&lt;title&gt;Setteeaardvark&lt;/title&gt;\l &lt;link ...\l">
<polygon fill="white" stroke="#b3b3b3" points="654.4,-252 504.57,-252 504.57,-216 654.4,-216 654.4,-252"/>
<text text-anchor="start" x="512.77" y="-237" font-family="Helvetica,sans-Serif" font-size="10.00">...&lt;title&gt;Setteeaardvark&lt;/title&gt;</text>
<text text-anchor="start" x="512.77" y="-225" font-family="Helvetica,sans-Serif" font-size="10.00"> &lt;link ...</text>
</a>
</g>
</g>
<!-- prints&#45;&gt;prints/setteeaardvark.html -->
<g id="edge13" class="edge">
<title>prints&#45;&gt;prints/setteeaardvark.html</title>
<path fill="none" stroke="#999999" d="M220.4,-287.32C248.61,-283.12 400.58,-260.49 497.26,-246.09"/>
<polygon fill="#999999" stroke="#999999" points="504.7,-244.99 497.78,-249.43 500.99,-245.54 497.29,-246.09 497.29,-246.09 497.29,-246.09 500.99,-245.54 496.79,-242.75 504.7,-244.99 504.7,-244.99"/>
<text text-anchor="middle" x="377.13" y="-275" font-family="Helvetica,sans-Serif" font-size="10.00">setteeaardvark.html</text>
</g>
<!-- prints/spilledcoffeeaardvark.html -->
<g id="node15" class="node">
<title>prints/spilledcoffeeaardvark.html</title>
<g id="a_node15"><a xlink:href="prints/spilledcoffeeaardvark.html" xlink:title="...&lt;title&gt;Spilled coffeeaardvark&lt;/title&gt;\l ...\l">
<polygon fill="white" stroke="#b3b3b3" points="669.52,-144 489.44,-144 489.44,-108 669.52,-108 669.52,-144"/>
<text text-anchor="start" x="497.21" y="-129" font-family="Helvetica,sans-Serif" font-size="10.00">...&lt;title&gt;Spilled coffeeaardvark&lt;/title&gt;</text>
<text text-anchor="start" x="497.21" y="-117" font-family="Helvetica,sans-Serif" font-size="10.00"> ...</text>
</a>
</g>
</g>
<!-- prints&#45;&gt;prints/spilledcoffeeaardvark.html -->
<g id="edge14" class="edge">
<title>prints&#45;&gt;prints/spilledcoffeeaardvark.html</title>
<path fill="none" stroke="#999999" d="M219.99,-285.13C233.71,-275.77 278.84,-245.64 319.04,-226 384.5,-194.03 462.93,-165 516.3,-146.56"/>
<polygon fill="#999999" stroke="#999999" points="523.66,-144.03 517.67,-149.66 520.11,-145.25 516.57,-146.47 516.57,-146.47 516.57,-146.47 520.11,-145.25 515.47,-143.28 523.66,-144.03 523.66,-144.03"/>
<text text-anchor="middle" x="377.13" y="-229" font-family="Helvetica,sans-Serif" font-size="10.00">spilledcoffeeaardvark.html</text>
</g>
<!-- prints/toffeeaardvark.html -->
<g id="node16" class="node">
<title>prints/toffeeaardvark.html</title>
<g id="a_node16"><a xlink:href="prints/toffeeaardvark.html" xlink:title="...&lt;title&gt;Toffeeaardvark&lt;/title&gt;\l &lt;link ...\l">
<polygon fill="white" stroke="#b3b3b3" points="653.83,-36 505.13,-36 505.13,0 653.83,0 653.83,-36"/>
<text text-anchor="start" x="513.06" y="-21" font-family="Helvetica,sans-Serif" font-size="10.00">...&lt;title&gt;Toffeeaardvark&lt;/title&gt;</text>
<text text-anchor="start" x="513.06" y="-9" font-family="Helvetica,sans-Serif" font-size="10.00"> &lt;link ...</text>
</a>
</g>
</g>
<!-- prints&#45;&gt;prints/toffeeaardvark.html -->
<g id="edge15" class="edge">
<title>prints&#45;&gt;prints/toffeeaardvark.html</title>
<path fill="none" stroke="#999999" d="M218.06,-283.5C227.73,-264.56 267.54,-190.4 319.04,-147 378.78,-96.67 461.5,-59.94 517.34,-38.82"/>
<polygon fill="#999999" stroke="#999999" points="524.7,-36.07 518.85,-41.86 521.18,-37.39 517.67,-38.7 517.67,-38.7 517.67,-38.7 521.18,-37.39 516.49,-35.54 524.7,-36.07 524.7,-36.07"/>
<text text-anchor="middle" x="377.13" y="-150" font-family="Helvetica,sans-Serif" font-size="10.00">toffeeaardvark.html</text>
</g>
</g>
</svg>
