<?xml version="1.0" encoding="UTF-8" standalone="no"?>
<!DOCTYPE svg PUBLIC "-//W3C//DTD SVG 1.1//EN"
 "http://www.w3.org/Graphics/SVG/1.1/DTD/svg11.dtd">
<!-- Generated by graphviz version 2.50.0 (20211209.1537)
 -->
<!-- Title: g Pages: 1 -->
<svg width="663pt" height="675pt"
 viewBox="0.00 0.00 663.30 675.00" xmlns="http://www.w3.org/2000/svg" xmlns:xlink="http://www.w3.org/1999/xlink">
<g id="graph0" class="graph" transform="scale(1 1) rotate(0) translate(4 671)">
<title>g</title>
<g id="node1" class="node">
<title></title>
<g id="a_node1"><a xlink:href=".">
<ellipse fill="white" stroke="#666666" cx="5.5" cy="-445" rx="5.5" ry="5.5"/>
</a>
</g>
</g>
<!-- assets -->
<g id="node2" class="node">
<title>assets</title>
<g id="a_node2"><a xlink:href="assets" xlink:title="Stylesheet, fonts, etc.\l">
<polygon fill="white" stroke="#b3b3b3" points="296.56,-667 185.34,-667 185.34,-631 296.56,-631 296.56,-667"/>
<text text-anchor="start" x="193.15" y="-646" font-family="Helvetica,sans-Serif" font-size="10.00">Stylesheet, fonts, etc.</text>
</a>
</g>
</g>
<!-- &#45;&gt;assets -->
<g id="edge1" class="edge">
<title>&#45;&gt;assets</title>
<path fill="none" stroke="#999999" d="M9.36,-449.19C17.36,-460.73 40.95,-493.68 65,-517 109.5,-560.13 168.18,-601.81 205,-626.42"/>
<polygon fill="#999999" stroke="#999999" points="211.61,-630.82 203.49,-629.48 208.49,-628.74 205.36,-626.67 205.36,-626.67 205.36,-626.67 208.49,-628.74 207.23,-623.86 211.61,-630.82 211.61,-630.82"/>
<text text-anchor="middle" x="89.18" y="-559" font-family="Helvetica,sans-Serif" font-size="10.00">assets</text>
</g>
<!-- index.html -->
<g id="node3" class="node">
<title>index.html</title>
<g id="a_node3"><a xlink:href="index.html" xlink:title="Home page showing all prints\l">
<polygon fill="white" stroke="#b3b3b3" points="314.63,-559 167.27,-559 167.27,-523 314.63,-523 314.63,-559"/>
<text text-anchor="start" x="175.36" y="-538" font-family="Helvetica,sans-Serif" font-size="10.00">Home page showing all prints</text>
</a>
</g>
</g>
<!-- &#45;&gt;index.html -->
<g id="edge2" class="edge">
<title>&#45;&gt;index.html</title>
<path fill="none" stroke="#999999" d="M10.96,-446.83C32.61,-455.74 128.3,-495.09 188.92,-520.02"/>
<polygon fill="#999999" stroke="#999999" points="196.14,-522.98 187.92,-523.25 192.67,-521.56 189.2,-520.13 189.2,-520.13 189.2,-520.13 192.67,-521.56 190.48,-517.01 196.14,-522.98 196.14,-522.98"/>
<text text-anchor="middle" x="89.18" y="-490" font-family="Helvetica,sans-Serif" font-size="10.00">index.html</text>
</g>
<!-- prints -->
<g id="node4" class="node">
<title>prints</title>
<g id="a_node4"><a xlink:href="prints">
<ellipse fill="white" stroke="#666666" cx="240.95" cy="-445" rx="5.5" ry="5.5"/>
</a>
</g>
</g>
<!-- &#45;&gt;prints -->
<g id="edge3" class="edge">
<title>&#45;&gt;prints</title>
<path fill="none" stroke="#999999" d="M11.05,-444.79C20.89,-444.35 44.88,-443.34 65,-443 126.11,-441.96 199.24,-443.79 227.74,-444.62"/>
<polygon fill="#999999" stroke="#999999" points="235.35,-444.85 227.76,-448 231.61,-444.74 227.86,-444.62 227.86,-444.62 227.86,-444.62 231.61,-444.74 227.96,-441.25 235.35,-444.85 235.35,-444.85"/>
<text text-anchor="middle" x="89.18" y="-446" font-family="Helvetica,sans-Serif" font-size="10.00">prints</text>
</g>
<!-- thumbnails -->
<g id="node7" class="node">
<title>thumbnails</title>
<g id="a_node7"><a xlink:href="thumbnails">
<ellipse fill="white" stroke="#666666" cx="240.95" cy="-342" rx="5.5" ry="5.5"/>
</a>
</g>
</g>
<!-- &#45;&gt;thumbnails -->
<g id="edge6" class="edge">
<title>&#45;&gt;thumbnails</title>
<path fill="none" stroke="#999999" d="M10.65,-442.4C20.09,-436.55 43.97,-422.08 65,-412 124.88,-383.29 199.8,-356.1 228.26,-346.07"/>
<polygon fill="#999999" stroke="#999999" points="235.53,-343.52 229.57,-349.19 231.99,-344.76 228.45,-346 228.45,-346 228.45,-346 231.99,-344.76 227.34,-342.81 235.53,-343.52 235.53,-343.52"/>
<text text-anchor="middle" x="89.18" y="-415" font-family="Helvetica,sans-Serif" font-size="10.00">thumbnails</text>
</g>
<!-- full -->
<g id="node10" class="node">
<title>full</title>
<g id="a_node10"><a xlink:href="full">
<ellipse fill="white" stroke="#666666" cx="240.95" cy="-126" rx="5.5" ry="5.5"/>
</a>
</g>
</g>
<!-- &#45;&gt;full -->
<g id="edge9" class="edge">
<title>&#45;&gt;full</title>
<path fill="none" stroke="#999999" d="M9.36,-440.71C17.75,-428.18 43.07,-390.57 65,-360 127.96,-272.26 207.2,-168.62 232.1,-136.2"/>
<polygon fill="#999999" stroke="#999999" points="236.78,-130.11 234.89,-138.11 234.5,-133.08 232.21,-136.06 232.21,-136.06 232.21,-136.06 234.5,-133.08 229.53,-134 236.78,-130.11 236.78,-130.11"/>
<text text-anchor="middle" x="89.18" y="-363" font-family="Helvetica,sans-Serif" font-size="10.00">full</text>
</g>
<!-- prints/three&#45;cats.html -->
<g id="node5" class="node">
<title>prints/three&#45;cats.html</title>
<g id="a_node5"><a xlink:href="prints/three-cats.html" xlink:title="Page for individual print\l">
<polygon fill="white" stroke="#b3b3b3" points="655.06,-576 535.04,-576 535.04,-540 655.06,-540 655.06,-576"/>
<text text-anchor="start" x="542.8" y="-555" font-family="Helvetica,sans-Serif" font-size="10.00">Page for individual print</text>
</a>
</g>
</g>
<!-- prints&#45;&gt;prints/three&#45;cats.html -->
<g id="edge4" class="edge">
<title>prints&#45;&gt;prints/three&#45;cats.html</title>
<path fill="none" stroke="#999999" d="M246.4,-446.43C275.31,-455.71 438.12,-507.96 530.33,-537.55"/>
<polygon fill="#999999" stroke="#999999" points="537.66,-539.9 529.49,-540.82 534.09,-538.76 530.52,-537.61 530.52,-537.61 530.52,-537.61 534.09,-538.76 531.55,-534.4 537.66,-539.9 537.66,-539.9"/>
<text text-anchor="middle" x="424.67" y="-524" font-family="Helvetica,sans-Serif" font-size="10.00">three&#45;cats.html</text>
</g>
<!-- prints/young&#45;girl&#45;with&#45;a&#45;cat.html -->
<g id="node6" class="node">
<title>prints/young&#45;girl&#45;with&#45;a&#45;cat.html</title>
<g id="a_node6"><a xlink:href="prints/young-girl-with-a-cat.html" xlink:title="Page for individual print\l">
<polygon fill="white" stroke="#b3b3b3" points="655.06,-468 535.04,-468 535.04,-432 655.06,-432 655.06,-468"/>
<text text-anchor="start" x="542.8" y="-447" font-family="Helvetica,sans-Serif" font-size="10.00">Page for individual print</text>
</a>
</g>
</g>
<!-- prints&#45;&gt;prints/young&#45;girl&#45;with&#45;a&#45;cat.html -->
<g id="edge5" class="edge">
<title>prints&#45;&gt;prints/young&#45;girl&#45;with&#45;a&#45;cat.html</title>
<path fill="none" stroke="#999999" d="M246.66,-445.07C275.95,-445.48 434.88,-447.74 527.31,-449.05"/>
<polygon fill="#999999" stroke="#999999" points="534.94,-449.16 527.39,-452.43 531.19,-449.11 527.44,-449.05 527.44,-449.05 527.44,-449.05 531.19,-449.11 527.49,-445.68 534.94,-449.16 534.94,-449.16"/>
<text text-anchor="middle" x="424.67" y="-451" font-family="Helvetica,sans-Serif" font-size="10.00">young&#45;girl&#45;with&#45;a&#45;cat.html</text>
</g>
<!-- thumbnails/three&#45;cats.jpg -->
<g id="node8" class="node">
<title>thumbnails/three&#45;cats.jpg</title>
<g id="a_node8"><a xlink:href="thumbnails/three-cats.jpg" xlink:title="Thumbnail print image\l">
<polygon fill="white" stroke="#b3b3b3" points="652.49,-360 537.61,-360 537.61,-324 652.49,-324 652.49,-360"/>
<text text-anchor="start" x="545.58" y="-339" font-family="Helvetica,sans-Serif" font-size="10.00">Thumbnail print image</text>
</a>
</g>
</g>
<!-- thumbnails&#45;&gt;thumbnails/three&#45;cats.jpg -->
<g id="edge7" class="edge">
<title>thumbnails&#45;&gt;thumbnails/three&#45;cats.jpg</title>
<path fill="none" stroke="#999999" d="M246.66,-342C276.23,-342 437.91,-342 529.92,-342"/>
<polygon fill="#999999" stroke="#999999" points="537.51,-342 530.01,-345.38 533.76,-342 530.01,-342 530.01,-342 530.01,-342 533.76,-342 530.01,-338.63 537.51,-342 537.51,-342"/>
<text text-anchor="middle" x="424.67" y="-345" font-family="Helvetica,sans-Serif" font-size="10.00">three&#45;cats.jpg</text>
</g>
<!-- thumbnails/young&#45;girl&#45;with&#45;a&#45;cat.jpg -->
<g id="node9" class="node">
<title>thumbnails/young&#45;girl&#45;with&#45;a&#45;cat.jpg</title>
<g id="a_node9"><a xlink:href="thumbnails/young-girl-with-a-cat.jpg" xlink:title="Thumbnail print image\l">
<polygon fill="white" stroke="#b3b3b3" points="652.49,-252 537.61,-252 537.61,-216 652.49,-216 652.49,-252"/>
<text text-anchor="start" x="545.58" y="-231" font-family="Helvetica,sans-Serif" font-size="10.00">Thumbnail print image</text>
</a>
</g>
</g>
<!-- thumbnails&#45;&gt;thumbnails/young&#45;girl&#45;with&#45;a&#45;cat.jpg -->
<g id="edge8" class="edge">
<title>thumbnails&#45;&gt;thumbnails/young&#45;girl&#45;with&#45;a&#45;cat.jpg</title>
<path fill="none" stroke="#999999" d="M246.4,-340.63C275.27,-331.78 437.68,-281.96 529.96,-253.66"/>
<polygon fill="#999999" stroke="#999999" points="537.29,-251.41 531.11,-256.83 533.71,-252.51 530.12,-253.61 530.12,-253.61 530.12,-253.61 533.71,-252.51 529.13,-250.38 537.29,-251.41 537.29,-251.41"/>
<text text-anchor="middle" x="424.67" y="-303" font-family="Helvetica,sans-Serif" font-size="10.00">young&#45;girl&#45;with&#45;a&#45;cat.jpg</text>
</g>
<!-- full/three&#45;cats.jpg -->
<g id="node11" class="node">
<title>full/three&#45;cats.jpg</title>
<g id="a_node11"><a xlink:href="full/three-cats.jpg" xlink:title="Full&#45;size print image\l">
<polygon fill="white" stroke="#b3b3b3" points="648.02,-144 542.08,-144 542.08,-108 648.02,-108 648.02,-144"/>
<text text-anchor="start" x="550.31" y="-123" font-family="Helvetica,sans-Serif" font-size="10.00">Full&#45;size print image</text>
</a>
</g>
</g>
<!-- full&#45;&gt;full/three&#45;cats.jpg -->
<g id="edge10" class="edge">
<title>full&#45;&gt;full/three&#45;cats.jpg</title>
<path fill="none" stroke="#999999" d="M246.66,-126C276.71,-126 443.26,-126 534.39,-126"/>
<polygon fill="#999999" stroke="#999999" points="542.17,-126 534.67,-129.38 538.42,-126 534.67,-126 534.67,-126 534.67,-126 538.42,-126 534.67,-122.63 542.17,-126 542.17,-126"/>
<text text-anchor="middle" x="424.67" y="-129" font-family="Helvetica,sans-Serif" font-size="10.00">three&#45;cats.jpg</text>
</g>
<!-- full/young&#45;girl&#45;with&#45;a&#45;cat.jpg -->
<g id="node12" class="node">
<title>full/young&#45;girl&#45;with&#45;a&#45;cat.jpg</title>
<g id="a_node12"><a xlink:href="full/young-girl-with-a-cat.jpg" xlink:title="Full&#45;size print image\l">
<polygon fill="white" stroke="#b3b3b3" points="648.02,-36 542.08,-36 542.08,0 648.02,0 648.02,-36"/>
<text text-anchor="start" x="550.31" y="-15" font-family="Helvetica,sans-Serif" font-size="10.00">Full&#45;size print image</text>
</a>
</g>
</g>
<!-- full&#45;&gt;full/young&#45;girl&#45;with&#45;a&#45;cat.jpg -->
<g id="edge11" class="edge">
<title>full&#45;&gt;full/young&#45;girl&#45;with&#45;a&#45;cat.jpg</title>
<path fill="none" stroke="#999999" d="M246.4,-124.63C275.78,-115.62 443.39,-64.21 534.72,-36.2"/>
<polygon fill="#999999" stroke="#999999" points="541.97,-33.97 535.79,-39.4 538.38,-35.07 534.8,-36.17 534.8,-36.17 534.8,-36.17 538.38,-35.07 533.81,-32.95 541.97,-33.97 541.97,-33.97"/>
<text text-anchor="middle" x="424.67" y="-88" font-family="Helvetica,sans-Serif" font-size="10.00">young&#45;girl&#45;with&#45;a&#45;cat.jpg</text>
</g>
</g>
</svg>
